<svg xmlns="http://www.w3.org/2000/svg" xmlns:xlink="http://www.w3.org/1999/xlink" width="625" height="402" viewBox="0 0 625 402"><defs><style>.a{fill:none;}.b{clip-path:url(#a);}.c{fill:#dbdbdb;}.d{fill:url(#b);}</style><clipPath id="a"><rect class="a" width="620" height="402"/></clipPath><linearGradient id="b" x1="1.479" y1="0.46" x2="0" y2="0.46" gradientUnits="objectBoundingBox"><stop offset="0" stop-color="#fff" stop-opacity="0"/><stop offset="1" stop-color="#f2f2f2" stop-opacity="0.969"/></linearGradient></defs><g transform="translate(-1662 -275)"><g transform="translate(307 32)"><g class="b" transform="translate(1360 243)"><g transform="translate(1404 -2907)"><circle class="c" cx="1.5" cy="1.5" r="1.5" transform="translate(-1404 2907)"/></g><g transform="translate(1426 -2907)"><circle class="c" cx="1.5" cy="1.5" r="1.5" transform="translate(-1404 2907)"/></g><g transform="translate(1448 -2907)"><circle class="c" cx="1.5" cy="1.5" r="1.5" transform="translate(-1404 2907)"/></g><g transform="translate(1470 -2907)"><circle class="c" cx="1.5" cy="1.5" r="1.5" transform="translate(-1404 2907)"/></g><g transform="translate(1492 -2907)"><circle class="c" cx="1.5" cy="1.5" r="1.5" transform="translate(-1404 2907)"/></g><g transform="translate(1514 -2907)"><circle class="c" cx="1.5" cy="1.5" r="1.5" transform="translate(-1404 2907)"/></g><g transform="translate(1536 -2907)"><circle class="c" cx="1.5" cy="1.5" r="1.5" transform="translate(-1404 2907)"/></g><g transform="translate(1558 -2907)"><circle class="c" cx="1.5" cy="1.5" r="1.5" transform="translate(-1404 2907)"/></g><g transform="translate(1580 -2907)"><circle class="c" cx="1.5" cy="1.5" r="1.5" transform="translate(-1404 2907)"/></g><g transform="translate(1602 -2907)"><circle class="c" cx="1.5" cy="1.5" r="1.5" transform="translate(-1404 2907)"/></g><g transform="translate(1624 -2907)"><circle class="c" cx="1.5" cy="1.5" r="1.5" transform="translate(-1404 2907)"/></g><g transform="translate(1646 -2907)"><circle class="c" cx="1.5" cy="1.5" r="1.5" transform="translate(-1404 2907)"/></g><g transform="translate(1668 -2907)"><circle class="c" cx="1.5" cy="1.5" r="1.5" transform="translate(-1404 2907)"/></g><g transform="translate(1690 -2907)"><circle class="c" cx="1.5" cy="1.5" r="1.5" transform="translate(-1404 2907)"/></g><g transform="translate(1712 -2907)"><circle class="c" cx="1.5" cy="1.5" r="1.5" transform="translate(-1404 2907)"/></g><g transform="translate(1734 -2907)"><circle class="c" cx="1.5" cy="1.5" r="1.5" transform="translate(-1404 2907)"/></g><g transform="translate(1756 -2907)"><circle class="c" cx="1.5" cy="1.5" r="1.5" transform="translate(-1404 2907)"/></g><g transform="translate(1778 -2907)"><circle class="c" cx="1.5" cy="1.5" r="1.5" transform="translate(-1404 2907)"/></g><g transform="translate(1800 -2907)"><circle class="c" cx="1.5" cy="1.5" r="1.5" transform="translate(-1404 2907)"/></g><g transform="translate(1822 -2907)"><circle class="c" cx="1.5" cy="1.5" r="1.5" transform="translate(-1404 2907)"/></g><g transform="translate(1844 -2907)"><circle class="c" cx="1.5" cy="1.5" r="1.5" transform="translate(-1404 2907)"/></g><g transform="translate(1866 -2907)"><circle class="c" cx="1.5" cy="1.5" r="1.5" transform="translate(-1404 2907)"/></g><g transform="translate(1888 -2907)"><circle class="c" cx="1.5" cy="1.5" r="1.5" transform="translate(-1404 2907)"/></g><g transform="translate(1910 -2907)"><circle class="c" cx="1.5" cy="1.5" r="1.5" transform="translate(-1404 2907)"/></g><g transform="translate(1932 -2907)"><circle class="c" cx="1.5" cy="1.5" r="1.5" transform="translate(-1404 2907)"/></g><g transform="translate(1954 -2907)"><circle class="c" cx="1.5" cy="1.5" r="1.5" transform="translate(-1404 2907)"/></g><g transform="translate(1976 -2907)"><circle class="c" cx="1.5" cy="1.5" r="1.5" transform="translate(-1404 2907)"/></g><g transform="translate(1998 -2907)"><circle class="c" cx="1.5" cy="1.5" r="1.5" transform="translate(-1404 2907)"/></g><g transform="translate(2020 -2907)"><circle class="c" cx="1.5" cy="1.5" r="1.5" transform="translate(-1404 2907)"/></g><g transform="translate(1404 -2884)"><circle class="c" cx="1.5" cy="1.5" r="1.5" transform="translate(-1404 2907)"/></g><g transform="translate(1426 -2884)"><circle class="c" cx="1.5" cy="1.5" r="1.5" transform="translate(-1404 2907)"/></g><g transform="translate(1448 -2884)"><circle class="c" cx="1.5" cy="1.5" r="1.5" transform="translate(-1404 2907)"/></g><g transform="translate(1470 -2884)"><circle class="c" cx="1.5" cy="1.5" r="1.5" transform="translate(-1404 2907)"/></g><g transform="translate(1492 -2884)"><circle class="c" cx="1.5" cy="1.5" r="1.5" transform="translate(-1404 2907)"/></g><g transform="translate(1514 -2884)"><circle class="c" cx="1.5" cy="1.5" r="1.5" transform="translate(-1404 2907)"/></g><g transform="translate(1536 -2884)"><circle class="c" cx="1.5" cy="1.5" r="1.5" transform="translate(-1404 2907)"/></g><g transform="translate(1558 -2884)"><circle class="c" cx="1.5" cy="1.5" r="1.5" transform="translate(-1404 2907)"/></g><g transform="translate(1580 -2884)"><circle class="c" cx="1.5" cy="1.5" r="1.5" transform="translate(-1404 2907)"/></g><g transform="translate(1602 -2884)"><circle class="c" cx="1.5" cy="1.5" r="1.5" transform="translate(-1404 2907)"/></g><g transform="translate(1624 -2884)"><circle class="c" cx="1.5" cy="1.5" r="1.5" transform="translate(-1404 2907)"/></g><g transform="translate(1646 -2884)"><circle class="c" cx="1.5" cy="1.5" r="1.5" transform="translate(-1404 2907)"/></g><g transform="translate(1668 -2884)"><circle class="c" cx="1.5" cy="1.5" r="1.5" transform="translate(-1404 2907)"/></g><g transform="translate(1690 -2884)"><circle class="c" cx="1.5" cy="1.5" r="1.5" transform="translate(-1404 2907)"/></g><g transform="translate(1712 -2884)"><circle class="c" cx="1.5" cy="1.5" r="1.5" transform="translate(-1404 2907)"/></g><g transform="translate(1734 -2884)"><circle class="c" cx="1.5" cy="1.5" r="1.5" transform="translate(-1404 2907)"/></g><g transform="translate(1756 -2884)"><circle class="c" cx="1.5" cy="1.5" r="1.5" transform="translate(-1404 2907)"/></g><g transform="translate(1778 -2884)"><circle class="c" cx="1.5" cy="1.5" r="1.5" transform="translate(-1404 2907)"/></g><g transform="translate(1800 -2884)"><circle class="c" cx="1.5" cy="1.5" r="1.5" transform="translate(-1404 2907)"/></g><g transform="translate(1822 -2884)"><circle class="c" cx="1.5" cy="1.5" r="1.5" transform="translate(-1404 2907)"/></g><g transform="translate(1844 -2884)"><circle class="c" cx="1.5" cy="1.5" r="1.5" transform="translate(-1404 2907)"/></g><g transform="translate(1866 -2884)"><circle class="c" cx="1.5" cy="1.5" r="1.5" transform="translate(-1404 2907)"/></g><g transform="translate(1888 -2884)"><circle class="c" cx="1.5" cy="1.5" r="1.5" transform="translate(-1404 2907)"/></g><g transform="translate(1910 -2884)"><circle class="c" cx="1.5" cy="1.5" r="1.5" transform="translate(-1404 2907)"/></g><g transform="translate(1932 -2884)"><circle class="c" cx="1.5" cy="1.5" r="1.5" transform="translate(-1404 2907)"/></g><g transform="translate(1954 -2884)"><circle class="c" cx="1.5" cy="1.5" r="1.5" transform="translate(-1404 2907)"/></g><g transform="translate(1976 -2884)"><circle class="c" cx="1.5" cy="1.5" r="1.5" transform="translate(-1404 2907)"/></g><g transform="translate(1998 -2884)"><circle class="c" cx="1.5" cy="1.5" r="1.5" transform="translate(-1404 2907)"/></g><g transform="translate(2020 -2884)"><circle class="c" cx="1.5" cy="1.5" r="1.5" transform="translate(-1404 2907)"/></g><g transform="translate(1404 -2861)"><circle class="c" cx="1.5" cy="1.5" r="1.5" transform="translate(-1404 2907)"/></g><g transform="translate(1426 -2861)"><circle class="c" cx="1.5" cy="1.5" r="1.5" transform="translate(-1404 2907)"/></g><g transform="translate(1448 -2861)"><circle class="c" cx="1.5" cy="1.5" r="1.5" transform="translate(-1404 2907)"/></g><g transform="translate(1470 -2861)"><circle class="c" cx="1.5" cy="1.5" r="1.5" transform="translate(-1404 2907)"/></g><g transform="translate(1492 -2861)"><circle class="c" cx="1.5" cy="1.5" r="1.5" transform="translate(-1404 2907)"/></g><g transform="translate(1514 -2861)"><circle class="c" cx="1.5" cy="1.5" r="1.5" transform="translate(-1404 2907)"/></g><g transform="translate(1536 -2861)"><circle class="c" cx="1.5" cy="1.5" r="1.5" transform="translate(-1404 2907)"/></g><g transform="translate(1558 -2861)"><circle class="c" cx="1.5" cy="1.5" r="1.5" transform="translate(-1404 2907)"/></g><g transform="translate(1580 -2861)"><circle class="c" cx="1.5" cy="1.5" r="1.5" transform="translate(-1404 2907)"/></g><g transform="translate(1602 -2861)"><circle class="c" cx="1.5" cy="1.5" r="1.5" transform="translate(-1404 2907)"/></g><g transform="translate(1624 -2861)"><circle class="c" cx="1.5" cy="1.5" r="1.5" transform="translate(-1404 2907)"/></g><g transform="translate(1646 -2861)"><circle class="c" cx="1.5" cy="1.5" r="1.5" transform="translate(-1404 2907)"/></g><g transform="translate(1668 -2861)"><circle class="c" cx="1.5" cy="1.5" r="1.5" transform="translate(-1404 2907)"/></g><g transform="translate(1690 -2861)"><circle class="c" cx="1.5" cy="1.5" r="1.5" transform="translate(-1404 2907)"/></g><g transform="translate(1712 -2861)"><circle class="c" cx="1.5" cy="1.5" r="1.5" transform="translate(-1404 2907)"/></g><g transform="translate(1734 -2861)"><circle class="c" cx="1.5" cy="1.5" r="1.5" transform="translate(-1404 2907)"/></g><g transform="translate(1756 -2861)"><circle class="c" cx="1.5" cy="1.5" r="1.5" transform="translate(-1404 2907)"/></g><g transform="translate(1778 -2861)"><circle class="c" cx="1.5" cy="1.5" r="1.5" transform="translate(-1404 2907)"/></g><g transform="translate(1800 -2861)"><circle class="c" cx="1.5" cy="1.5" r="1.5" transform="translate(-1404 2907)"/></g><g transform="translate(1822 -2861)"><circle class="c" cx="1.5" cy="1.5" r="1.5" transform="translate(-1404 2907)"/></g><g transform="translate(1844 -2861)"><circle class="c" cx="1.5" cy="1.5" r="1.5" transform="translate(-1404 2907)"/></g><g transform="translate(1866 -2861)"><circle class="c" cx="1.5" cy="1.5" r="1.5" transform="translate(-1404 2907)"/></g><g transform="translate(1888 -2861)"><circle class="c" cx="1.5" cy="1.5" r="1.5" transform="translate(-1404 2907)"/></g><g transform="translate(1910 -2861)"><circle class="c" cx="1.5" cy="1.5" r="1.5" transform="translate(-1404 2907)"/></g><g transform="translate(1932 -2861)"><circle class="c" cx="1.5" cy="1.5" r="1.5" transform="translate(-1404 2907)"/></g><g transform="translate(1954 -2861)"><circle class="c" cx="1.5" cy="1.5" r="1.5" transform="translate(-1404 2907)"/></g><g transform="translate(1976 -2861)"><circle class="c" cx="1.5" cy="1.5" r="1.5" transform="translate(-1404 2907)"/></g><g transform="translate(1998 -2861)"><circle class="c" cx="1.5" cy="1.5" r="1.5" transform="translate(-1404 2907)"/></g><g transform="translate(2020 -2861)"><circle class="c" cx="1.5" cy="1.5" r="1.5" transform="translate(-1404 2907)"/></g><g transform="translate(1404 -2838)"><circle class="c" cx="1.5" cy="1.5" r="1.5" transform="translate(-1404 2907)"/></g><g transform="translate(1426 -2838)"><circle class="c" cx="1.5" cy="1.5" r="1.5" transform="translate(-1404 2907)"/></g><g transform="translate(1448 -2838)"><circle class="c" cx="1.5" cy="1.5" r="1.5" transform="translate(-1404 2907)"/></g><g transform="translate(1470 -2838)"><circle class="c" cx="1.5" cy="1.5" r="1.5" transform="translate(-1404 2907)"/></g><g transform="translate(1492 -2838)"><circle class="c" cx="1.5" cy="1.5" r="1.5" transform="translate(-1404 2907)"/></g><g transform="translate(1514 -2838)"><circle class="c" cx="1.5" cy="1.5" r="1.5" transform="translate(-1404 2907)"/></g><g transform="translate(1536 -2838)"><circle class="c" cx="1.5" cy="1.5" r="1.5" transform="translate(-1404 2907)"/></g><g transform="translate(1558 -2838)"><circle class="c" cx="1.5" cy="1.5" r="1.5" transform="translate(-1404 2907)"/></g><g transform="translate(1580 -2838)"><circle class="c" cx="1.5" cy="1.5" r="1.5" transform="translate(-1404 2907)"/></g><g transform="translate(1602 -2838)"><circle class="c" cx="1.5" cy="1.5" r="1.5" transform="translate(-1404 2907)"/></g><g transform="translate(1624 -2838)"><circle class="c" cx="1.5" cy="1.5" r="1.5" transform="translate(-1404 2907)"/></g><g transform="translate(1646 -2838)"><circle class="c" cx="1.5" cy="1.5" r="1.5" transform="translate(-1404 2907)"/></g><g transform="translate(1668 -2838)"><circle class="c" cx="1.5" cy="1.5" r="1.5" transform="translate(-1404 2907)"/></g><g transform="translate(1690 -2838)"><circle class="c" cx="1.5" cy="1.5" r="1.5" transform="translate(-1404 2907)"/></g><g transform="translate(1712 -2838)"><circle class="c" cx="1.5" cy="1.5" r="1.5" transform="translate(-1404 2907)"/></g><g transform="translate(1734 -2838)"><circle class="c" cx="1.5" cy="1.5" r="1.5" transform="translate(-1404 2907)"/></g><g transform="translate(1756 -2838)"><circle class="c" cx="1.5" cy="1.5" r="1.5" transform="translate(-1404 2907)"/></g><g transform="translate(1778 -2838)"><circle class="c" cx="1.5" cy="1.5" r="1.5" transform="translate(-1404 2907)"/></g><g transform="translate(1800 -2838)"><circle class="c" cx="1.5" cy="1.5" r="1.5" transform="translate(-1404 2907)"/></g><g transform="translate(1822 -2838)"><circle class="c" cx="1.5" cy="1.5" r="1.5" transform="translate(-1404 2907)"/></g><g transform="translate(1844 -2838)"><circle class="c" cx="1.5" cy="1.5" r="1.5" transform="translate(-1404 2907)"/></g><g transform="translate(1866 -2838)"><circle class="c" cx="1.5" cy="1.5" r="1.5" transform="translate(-1404 2907)"/></g><g transform="translate(1888 -2838)"><circle class="c" cx="1.5" cy="1.5" r="1.5" transform="translate(-1404 2907)"/></g><g transform="translate(1910 -2838)"><circle class="c" cx="1.5" cy="1.5" r="1.5" transform="translate(-1404 2907)"/></g><g transform="translate(1932 -2838)"><circle class="c" cx="1.5" cy="1.5" r="1.5" transform="translate(-1404 2907)"/></g><g transform="translate(1954 -2838)"><circle class="c" cx="1.5" cy="1.5" r="1.5" transform="translate(-1404 2907)"/></g><g transform="translate(1976 -2838)"><circle class="c" cx="1.5" cy="1.5" r="1.5" transform="translate(-1404 2907)"/></g><g transform="translate(1998 -2838)"><circle class="c" cx="1.5" cy="1.5" r="1.5" transform="translate(-1404 2907)"/></g><g transform="translate(2020 -2838)"><circle class="c" cx="1.5" cy="1.5" r="1.5" transform="translate(-1404 2907)"/></g><g transform="translate(1404 -2815)"><circle class="c" cx="1.5" cy="1.5" r="1.5" transform="translate(-1404 2907)"/></g><g transform="translate(1426 -2815)"><circle class="c" cx="1.5" cy="1.5" r="1.5" transform="translate(-1404 2907)"/></g><g transform="translate(1448 -2815)"><circle class="c" cx="1.5" cy="1.5" r="1.5" transform="translate(-1404 2907)"/></g><g transform="translate(1470 -2815)"><circle class="c" cx="1.5" cy="1.5" r="1.5" transform="translate(-1404 2907)"/></g><g transform="translate(1492 -2815)"><circle class="c" cx="1.5" cy="1.5" r="1.5" transform="translate(-1404 2907)"/></g><g transform="translate(1514 -2815)"><circle class="c" cx="1.5" cy="1.5" r="1.5" transform="translate(-1404 2907)"/></g><g transform="translate(1536 -2815)"><circle class="c" cx="1.5" cy="1.5" r="1.5" transform="translate(-1404 2907)"/></g><g transform="translate(1558 -2815)"><circle class="c" cx="1.5" cy="1.5" r="1.5" transform="translate(-1404 2907)"/></g><g transform="translate(1580 -2815)"><circle class="c" cx="1.5" cy="1.5" r="1.5" transform="translate(-1404 2907)"/></g><g transform="translate(1602 -2815)"><circle class="c" cx="1.5" cy="1.5" r="1.5" transform="translate(-1404 2907)"/></g><g transform="translate(1624 -2815)"><circle class="c" cx="1.5" cy="1.5" r="1.5" transform="translate(-1404 2907)"/></g><g transform="translate(1646 -2815)"><circle class="c" cx="1.5" cy="1.5" r="1.5" transform="translate(-1404 2907)"/></g><g transform="translate(1668 -2815)"><circle class="c" cx="1.5" cy="1.5" r="1.5" transform="translate(-1404 2907)"/></g><g transform="translate(1690 -2815)"><circle class="c" cx="1.5" cy="1.5" r="1.5" transform="translate(-1404 2907)"/></g><g transform="translate(1712 -2815)"><circle class="c" cx="1.5" cy="1.5" r="1.5" transform="translate(-1404 2907)"/></g><g transform="translate(1734 -2815)"><circle class="c" cx="1.5" cy="1.5" r="1.5" transform="translate(-1404 2907)"/></g><g transform="translate(1756 -2815)"><circle class="c" cx="1.5" cy="1.5" r="1.5" transform="translate(-1404 2907)"/></g><g transform="translate(1778 -2815)"><circle class="c" cx="1.5" cy="1.5" r="1.5" transform="translate(-1404 2907)"/></g><g transform="translate(1800 -2815)"><circle class="c" cx="1.5" cy="1.5" r="1.5" transform="translate(-1404 2907)"/></g><g transform="translate(1822 -2815)"><circle class="c" cx="1.5" cy="1.5" r="1.5" transform="translate(-1404 2907)"/></g><g transform="translate(1844 -2815)"><circle class="c" cx="1.5" cy="1.5" r="1.5" transform="translate(-1404 2907)"/></g><g transform="translate(1866 -2815)"><circle class="c" cx="1.5" cy="1.5" r="1.5" transform="translate(-1404 2907)"/></g><g transform="translate(1888 -2815)"><circle class="c" cx="1.5" cy="1.5" r="1.5" transform="translate(-1404 2907)"/></g><g transform="translate(1910 -2815)"><circle class="c" cx="1.5" cy="1.5" r="1.5" transform="translate(-1404 2907)"/></g><g transform="translate(1932 -2815)"><circle class="c" cx="1.5" cy="1.5" r="1.5" transform="translate(-1404 2907)"/></g><g transform="translate(1954 -2815)"><circle class="c" cx="1.5" cy="1.5" r="1.5" transform="translate(-1404 2907)"/></g><g transform="translate(1976 -2815)"><circle class="c" cx="1.5" cy="1.5" r="1.5" transform="translate(-1404 2907)"/></g><g transform="translate(1998 -2815)"><circle class="c" cx="1.5" cy="1.5" r="1.5" transform="translate(-1404 2907)"/></g><g transform="translate(2020 -2815)"><circle class="c" cx="1.5" cy="1.5" r="1.5" transform="translate(-1404 2907)"/></g><g transform="translate(1404 -2792)"><circle class="c" cx="1.5" cy="1.5" r="1.5" transform="translate(-1404 2907)"/></g><g transform="translate(1426 -2792)"><circle class="c" cx="1.5" cy="1.5" r="1.5" transform="translate(-1404 2907)"/></g><g transform="translate(1448 -2792)"><circle class="c" cx="1.5" cy="1.5" r="1.5" transform="translate(-1404 2907)"/></g><g transform="translate(1470 -2792)"><circle class="c" cx="1.5" cy="1.5" r="1.5" transform="translate(-1404 2907)"/></g><g transform="translate(1492 -2792)"><circle class="c" cx="1.5" cy="1.5" r="1.5" transform="translate(-1404 2907)"/></g><g transform="translate(1514 -2792)"><circle class="c" cx="1.5" cy="1.5" r="1.5" transform="translate(-1404 2907)"/></g><g transform="translate(1536 -2792)"><circle class="c" cx="1.5" cy="1.5" r="1.5" transform="translate(-1404 2907)"/></g><g transform="translate(1558 -2792)"><circle class="c" cx="1.5" cy="1.5" r="1.5" transform="translate(-1404 2907)"/></g><g transform="translate(1580 -2792)"><circle class="c" cx="1.5" cy="1.5" r="1.5" transform="translate(-1404 2907)"/></g><g transform="translate(1602 -2792)"><circle class="c" cx="1.5" cy="1.5" r="1.5" transform="translate(-1404 2907)"/></g><g transform="translate(1624 -2792)"><circle class="c" cx="1.5" cy="1.5" r="1.5" transform="translate(-1404 2907)"/></g><g transform="translate(1646 -2792)"><circle class="c" cx="1.5" cy="1.5" r="1.5" transform="translate(-1404 2907)"/></g><g transform="translate(1668 -2792)"><circle class="c" cx="1.5" cy="1.5" r="1.5" transform="translate(-1404 2907)"/></g><g transform="translate(1690 -2792)"><circle class="c" cx="1.5" cy="1.5" r="1.5" transform="translate(-1404 2907)"/></g><g transform="translate(1712 -2792)"><circle class="c" cx="1.5" cy="1.5" r="1.5" transform="translate(-1404 2907)"/></g><g transform="translate(1734 -2792)"><circle class="c" cx="1.5" cy="1.5" r="1.5" transform="translate(-1404 2907)"/></g><g transform="translate(1756 -2792)"><circle class="c" cx="1.5" cy="1.5" r="1.5" transform="translate(-1404 2907)"/></g><g transform="translate(1778 -2792)"><circle class="c" cx="1.5" cy="1.5" r="1.5" transform="translate(-1404 2907)"/></g><g transform="translate(1800 -2792)"><circle class="c" cx="1.5" cy="1.5" r="1.5" transform="translate(-1404 2907)"/></g><g transform="translate(1822 -2792)"><circle class="c" cx="1.5" cy="1.5" r="1.5" transform="translate(-1404 2907)"/></g><g transform="translate(1844 -2792)"><circle class="c" cx="1.5" cy="1.5" r="1.5" transform="translate(-1404 2907)"/></g><g transform="translate(1866 -2792)"><circle class="c" cx="1.5" cy="1.5" r="1.5" transform="translate(-1404 2907)"/></g><g transform="translate(1888 -2792)"><circle class="c" cx="1.5" cy="1.5" r="1.5" transform="translate(-1404 2907)"/></g><g transform="translate(1910 -2792)"><circle class="c" cx="1.5" cy="1.5" r="1.5" transform="translate(-1404 2907)"/></g><g transform="translate(1932 -2792)"><circle class="c" cx="1.5" cy="1.5" r="1.5" transform="translate(-1404 2907)"/></g><g transform="translate(1954 -2792)"><circle class="c" cx="1.5" cy="1.5" r="1.5" transform="translate(-1404 2907)"/></g><g transform="translate(1976 -2792)"><circle class="c" cx="1.5" cy="1.5" r="1.5" transform="translate(-1404 2907)"/></g><g transform="translate(1998 -2792)"><circle class="c" cx="1.5" cy="1.5" r="1.5" transform="translate(-1404 2907)"/></g><g transform="translate(2020 -2792)"><circle class="c" cx="1.5" cy="1.5" r="1.5" transform="translate(-1404 2907)"/></g><g transform="translate(1404 -2769)"><circle class="c" cx="1.5" cy="1.5" r="1.5" transform="translate(-1404 2907)"/></g><g transform="translate(1426 -2769)"><circle class="c" cx="1.5" cy="1.5" r="1.5" transform="translate(-1404 2907)"/></g><g transform="translate(1448 -2769)"><circle class="c" cx="1.5" cy="1.5" r="1.5" transform="translate(-1404 2907)"/></g><g transform="translate(1470 -2769)"><circle class="c" cx="1.5" cy="1.5" r="1.5" transform="translate(-1404 2907)"/></g><g transform="translate(1492 -2769)"><circle class="c" cx="1.5" cy="1.5" r="1.5" transform="translate(-1404 2907)"/></g><g transform="translate(1514 -2769)"><circle class="c" cx="1.5" cy="1.5" r="1.5" transform="translate(-1404 2907)"/></g><g transform="translate(1536 -2769)"><circle class="c" cx="1.5" cy="1.5" r="1.5" transform="translate(-1404 2907)"/></g><g transform="translate(1558 -2769)"><circle class="c" cx="1.5" cy="1.5" r="1.5" transform="translate(-1404 2907)"/></g><g transform="translate(1580 -2769)"><circle class="c" cx="1.5" cy="1.5" r="1.5" transform="translate(-1404 2907)"/></g><g transform="translate(1602 -2769)"><circle class="c" cx="1.5" cy="1.5" r="1.5" transform="translate(-1404 2907)"/></g><g transform="translate(1624 -2769)"><circle class="c" cx="1.5" cy="1.5" r="1.5" transform="translate(-1404 2907)"/></g><g transform="translate(1646 -2769)"><circle class="c" cx="1.5" cy="1.5" r="1.5" transform="translate(-1404 2907)"/></g><g transform="translate(1668 -2769)"><circle class="c" cx="1.5" cy="1.5" r="1.5" transform="translate(-1404 2907)"/></g><g transform="translate(1690 -2769)"><circle class="c" cx="1.5" cy="1.5" r="1.5" transform="translate(-1404 2907)"/></g><g transform="translate(1712 -2769)"><circle class="c" cx="1.5" cy="1.5" r="1.5" transform="translate(-1404 2907)"/></g><g transform="translate(1734 -2769)"><circle class="c" cx="1.5" cy="1.5" r="1.5" transform="translate(-1404 2907)"/></g><g transform="translate(1756 -2769)"><circle class="c" cx="1.5" cy="1.5" r="1.5" transform="translate(-1404 2907)"/></g><g transform="translate(1778 -2769)"><circle class="c" cx="1.5" cy="1.5" r="1.5" transform="translate(-1404 2907)"/></g><g transform="translate(1800 -2769)"><circle class="c" cx="1.5" cy="1.5" r="1.5" transform="translate(-1404 2907)"/></g><g transform="translate(1822 -2769)"><circle class="c" cx="1.5" cy="1.5" r="1.5" transform="translate(-1404 2907)"/></g><g transform="translate(1844 -2769)"><circle class="c" cx="1.5" cy="1.5" r="1.5" transform="translate(-1404 2907)"/></g><g transform="translate(1866 -2769)"><circle class="c" cx="1.5" cy="1.5" r="1.5" transform="translate(-1404 2907)"/></g><g transform="translate(1888 -2769)"><circle class="c" cx="1.5" cy="1.5" r="1.5" transform="translate(-1404 2907)"/></g><g transform="translate(1910 -2769)"><circle class="c" cx="1.5" cy="1.5" r="1.5" transform="translate(-1404 2907)"/></g><g transform="translate(1932 -2769)"><circle class="c" cx="1.5" cy="1.5" r="1.5" transform="translate(-1404 2907)"/></g><g transform="translate(1954 -2769)"><circle class="c" cx="1.5" cy="1.5" r="1.5" transform="translate(-1404 2907)"/></g><g transform="translate(1976 -2769)"><circle class="c" cx="1.5" cy="1.5" r="1.5" transform="translate(-1404 2907)"/></g><g transform="translate(1998 -2769)"><circle class="c" cx="1.5" cy="1.5" r="1.5" transform="translate(-1404 2907)"/></g><g transform="translate(2020 -2769)"><circle class="c" cx="1.5" cy="1.5" r="1.5" transform="translate(-1404 2907)"/></g><g transform="translate(1404 -2746)"><circle class="c" cx="1.5" cy="1.5" r="1.5" transform="translate(-1404 2907)"/></g><g transform="translate(1426 -2746)"><circle class="c" cx="1.5" cy="1.5" r="1.5" transform="translate(-1404 2907)"/></g><g transform="translate(1448 -2746)"><circle class="c" cx="1.5" cy="1.5" r="1.5" transform="translate(-1404 2907)"/></g><g transform="translate(1470 -2746)"><circle class="c" cx="1.5" cy="1.5" r="1.5" transform="translate(-1404 2907)"/></g><g transform="translate(1492 -2746)"><circle class="c" cx="1.5" cy="1.5" r="1.5" transform="translate(-1404 2907)"/></g><g transform="translate(1514 -2746)"><circle class="c" cx="1.5" cy="1.5" r="1.5" transform="translate(-1404 2907)"/></g><g transform="translate(1536 -2746)"><circle class="c" cx="1.5" cy="1.5" r="1.5" transform="translate(-1404 2907)"/></g><g transform="translate(1558 -2746)"><circle class="c" cx="1.5" cy="1.5" r="1.5" transform="translate(-1404 2907)"/></g><g transform="translate(1580 -2746)"><circle class="c" cx="1.5" cy="1.5" r="1.5" transform="translate(-1404 2907)"/></g><g transform="translate(1602 -2746)"><circle class="c" cx="1.5" cy="1.5" r="1.5" transform="translate(-1404 2907)"/></g><g transform="translate(1624 -2746)"><circle class="c" cx="1.5" cy="1.5" r="1.5" transform="translate(-1404 2907)"/></g><g transform="translate(1646 -2746)"><circle class="c" cx="1.5" cy="1.5" r="1.5" transform="translate(-1404 2907)"/></g><g transform="translate(1668 -2746)"><circle class="c" cx="1.5" cy="1.5" r="1.5" transform="translate(-1404 2907)"/></g><g transform="translate(1690 -2746)"><circle class="c" cx="1.5" cy="1.5" r="1.5" transform="translate(-1404 2907)"/></g><g transform="translate(1712 -2746)"><circle class="c" cx="1.5" cy="1.5" r="1.5" transform="translate(-1404 2907)"/></g><g transform="translate(1734 -2746)"><circle class="c" cx="1.5" cy="1.5" r="1.5" transform="translate(-1404 2907)"/></g><g transform="translate(1756 -2746)"><circle class="c" cx="1.5" cy="1.5" r="1.5" transform="translate(-1404 2907)"/></g><g transform="translate(1778 -2746)"><circle class="c" cx="1.5" cy="1.5" r="1.5" transform="translate(-1404 2907)"/></g><g transform="translate(1800 -2746)"><circle class="c" cx="1.5" cy="1.5" r="1.5" transform="translate(-1404 2907)"/></g><g transform="translate(1822 -2746)"><circle class="c" cx="1.5" cy="1.5" r="1.5" transform="translate(-1404 2907)"/></g><g transform="translate(1844 -2746)"><circle class="c" cx="1.5" cy="1.5" r="1.5" transform="translate(-1404 2907)"/></g><g transform="translate(1866 -2746)"><circle class="c" cx="1.5" cy="1.5" r="1.5" transform="translate(-1404 2907)"/></g><g transform="translate(1888 -2746)"><circle class="c" cx="1.5" cy="1.5" r="1.5" transform="translate(-1404 2907)"/></g><g transform="translate(1910 -2746)"><circle class="c" cx="1.5" cy="1.5" r="1.5" transform="translate(-1404 2907)"/></g><g transform="translate(1932 -2746)"><circle class="c" cx="1.5" cy="1.5" r="1.5" transform="translate(-1404 2907)"/></g><g transform="translate(1954 -2746)"><circle class="c" cx="1.5" cy="1.5" r="1.5" transform="translate(-1404 2907)"/></g><g transform="translate(1976 -2746)"><circle class="c" cx="1.5" cy="1.5" r="1.5" transform="translate(-1404 2907)"/></g><g transform="translate(1998 -2746)"><circle class="c" cx="1.5" cy="1.5" r="1.5" transform="translate(-1404 2907)"/></g><g transform="translate(2020 -2746)"><circle class="c" cx="1.5" cy="1.5" r="1.5" transform="translate(-1404 2907)"/></g><g transform="translate(1404 -2723)"><circle class="c" cx="1.5" cy="1.5" r="1.5" transform="translate(-1404 2907)"/></g><g transform="translate(1426 -2723)"><circle class="c" cx="1.5" cy="1.5" r="1.5" transform="translate(-1404 2907)"/></g><g transform="translate(1448 -2723)"><circle class="c" cx="1.5" cy="1.5" r="1.5" transform="translate(-1404 2907)"/></g><g transform="translate(1470 -2723)"><circle class="c" cx="1.5" cy="1.5" r="1.5" transform="translate(-1404 2907)"/></g><g transform="translate(1492 -2723)"><circle class="c" cx="1.5" cy="1.5" r="1.5" transform="translate(-1404 2907)"/></g><g transform="translate(1514 -2723)"><circle class="c" cx="1.5" cy="1.5" r="1.5" transform="translate(-1404 2907)"/></g><g transform="translate(1536 -2723)"><circle class="c" cx="1.5" cy="1.5" r="1.5" transform="translate(-1404 2907)"/></g><g transform="translate(1558 -2723)"><circle class="c" cx="1.5" cy="1.5" r="1.5" transform="translate(-1404 2907)"/></g><g transform="translate(1580 -2723)"><circle class="c" cx="1.5" cy="1.5" r="1.5" transform="translate(-1404 2907)"/></g><g transform="translate(1602 -2723)"><circle class="c" cx="1.5" cy="1.5" r="1.5" transform="translate(-1404 2907)"/></g><g transform="translate(1624 -2723)"><circle class="c" cx="1.5" cy="1.5" r="1.5" transform="translate(-1404 2907)"/></g><g transform="translate(1646 -2723)"><circle class="c" cx="1.5" cy="1.5" r="1.5" transform="translate(-1404 2907)"/></g><g transform="translate(1668 -2723)"><circle class="c" cx="1.5" cy="1.5" r="1.5" transform="translate(-1404 2907)"/></g><g transform="translate(1690 -2723)"><circle class="c" cx="1.5" cy="1.5" r="1.5" transform="translate(-1404 2907)"/></g><g transform="translate(1712 -2723)"><circle class="c" cx="1.5" cy="1.5" r="1.5" transform="translate(-1404 2907)"/></g><g transform="translate(1734 -2723)"><circle class="c" cx="1.5" cy="1.5" r="1.5" transform="translate(-1404 2907)"/></g><g transform="translate(1756 -2723)"><circle class="c" cx="1.5" cy="1.5" r="1.5" transform="translate(-1404 2907)"/></g><g transform="translate(1778 -2723)"><circle class="c" cx="1.5" cy="1.5" r="1.5" transform="translate(-1404 2907)"/></g><g transform="translate(1800 -2723)"><circle class="c" cx="1.5" cy="1.5" r="1.5" transform="translate(-1404 2907)"/></g><g transform="translate(1822 -2723)"><circle class="c" cx="1.5" cy="1.5" r="1.5" transform="translate(-1404 2907)"/></g><g transform="translate(1844 -2723)"><circle class="c" cx="1.5" cy="1.5" r="1.5" transform="translate(-1404 2907)"/></g><g transform="translate(1866 -2723)"><circle class="c" cx="1.5" cy="1.5" r="1.5" transform="translate(-1404 2907)"/></g><g transform="translate(1888 -2723)"><circle class="c" cx="1.5" cy="1.5" r="1.5" transform="translate(-1404 2907)"/></g><g transform="translate(1910 -2723)"><circle class="c" cx="1.5" cy="1.5" r="1.5" transform="translate(-1404 2907)"/></g><g transform="translate(1932 -2723)"><circle class="c" cx="1.5" cy="1.5" r="1.5" transform="translate(-1404 2907)"/></g><g transform="translate(1954 -2723)"><circle class="c" cx="1.5" cy="1.5" r="1.5" transform="translate(-1404 2907)"/></g><g transform="translate(1976 -2723)"><circle class="c" cx="1.5" cy="1.5" r="1.5" transform="translate(-1404 2907)"/></g><g transform="translate(1998 -2723)"><circle class="c" cx="1.5" cy="1.5" r="1.5" transform="translate(-1404 2907)"/></g><g transform="translate(2020 -2723)"><circle class="c" cx="1.5" cy="1.5" r="1.5" transform="translate(-1404 2907)"/></g><g transform="translate(1404 -2700)"><circle class="c" cx="1.5" cy="1.5" r="1.5" transform="translate(-1404 2907)"/></g><g transform="translate(1426 -2700)"><circle class="c" cx="1.5" cy="1.5" r="1.5" transform="translate(-1404 2907)"/></g><g transform="translate(1448 -2700)"><circle class="c" cx="1.5" cy="1.5" r="1.5" transform="translate(-1404 2907)"/></g><g transform="translate(1470 -2700)"><circle class="c" cx="1.5" cy="1.5" r="1.5" transform="translate(-1404 2907)"/></g><g transform="translate(1492 -2700)"><circle class="c" cx="1.5" cy="1.5" r="1.5" transform="translate(-1404 2907)"/></g><g transform="translate(1514 -2700)"><circle class="c" cx="1.5" cy="1.5" r="1.5" transform="translate(-1404 2907)"/></g><g transform="translate(1536 -2700)"><circle class="c" cx="1.5" cy="1.5" r="1.5" transform="translate(-1404 2907)"/></g><g transform="translate(1558 -2700)"><circle class="c" cx="1.5" cy="1.5" r="1.5" transform="translate(-1404 2907)"/></g><g transform="translate(1580 -2700)"><circle class="c" cx="1.5" cy="1.5" r="1.5" transform="translate(-1404 2907)"/></g><g transform="translate(1602 -2700)"><circle class="c" cx="1.5" cy="1.5" r="1.5" transform="translate(-1404 2907)"/></g><g transform="translate(1624 -2700)"><circle class="c" cx="1.5" cy="1.5" r="1.5" transform="translate(-1404 2907)"/></g><g transform="translate(1646 -2700)"><circle class="c" cx="1.5" cy="1.5" r="1.5" transform="translate(-1404 2907)"/></g><g transform="translate(1668 -2700)"><circle class="c" cx="1.5" cy="1.5" r="1.5" transform="translate(-1404 2907)"/></g><g transform="translate(1690 -2700)"><circle class="c" cx="1.5" cy="1.5" r="1.5" transform="translate(-1404 2907)"/></g><g transform="translate(1712 -2700)"><circle class="c" cx="1.5" cy="1.5" r="1.5" transform="translate(-1404 2907)"/></g><g transform="translate(1734 -2700)"><circle class="c" cx="1.5" cy="1.5" r="1.5" transform="translate(-1404 2907)"/></g><g transform="translate(1756 -2700)"><circle class="c" cx="1.5" cy="1.5" r="1.5" transform="translate(-1404 2907)"/></g><g transform="translate(1778 -2700)"><circle class="c" cx="1.5" cy="1.5" r="1.5" transform="translate(-1404 2907)"/></g><g transform="translate(1800 -2700)"><circle class="c" cx="1.5" cy="1.5" r="1.5" transform="translate(-1404 2907)"/></g><g transform="translate(1822 -2700)"><circle class="c" cx="1.5" cy="1.5" r="1.5" transform="translate(-1404 2907)"/></g><g transform="translate(1844 -2700)"><circle class="c" cx="1.5" cy="1.5" r="1.5" transform="translate(-1404 2907)"/></g><g transform="translate(1866 -2700)"><circle class="c" cx="1.5" cy="1.5" r="1.5" transform="translate(-1404 2907)"/></g><g transform="translate(1888 -2700)"><circle class="c" cx="1.5" cy="1.5" r="1.5" transform="translate(-1404 2907)"/></g><g transform="translate(1910 -2700)"><circle class="c" cx="1.5" cy="1.5" r="1.5" transform="translate(-1404 2907)"/></g><g transform="translate(1932 -2700)"><circle class="c" cx="1.5" cy="1.5" r="1.5" transform="translate(-1404 2907)"/></g><g transform="translate(1954 -2700)"><circle class="c" cx="1.5" cy="1.5" r="1.5" transform="translate(-1404 2907)"/></g><g transform="translate(1976 -2700)"><circle class="c" cx="1.5" cy="1.5" r="1.5" transform="translate(-1404 2907)"/></g><g transform="translate(1998 -2700)"><circle class="c" cx="1.5" cy="1.5" r="1.5" transform="translate(-1404 2907)"/></g><g transform="translate(2020 -2700)"><circle class="c" cx="1.5" cy="1.5" r="1.5" transform="translate(-1404 2907)"/></g><g transform="translate(1404 -2677)"><circle class="c" cx="1.5" cy="1.5" r="1.5" transform="translate(-1404 2907)"/></g><g transform="translate(1426 -2677)"><circle class="c" cx="1.5" cy="1.5" r="1.5" transform="translate(-1404 2907)"/></g><g transform="translate(1448 -2677)"><circle class="c" cx="1.5" cy="1.5" r="1.5" transform="translate(-1404 2907)"/></g><g transform="translate(1470 -2677)"><circle class="c" cx="1.5" cy="1.5" r="1.5" transform="translate(-1404 2907)"/></g><g transform="translate(1492 -2677)"><circle class="c" cx="1.5" cy="1.5" r="1.5" transform="translate(-1404 2907)"/></g><g transform="translate(1514 -2677)"><circle class="c" cx="1.5" cy="1.5" r="1.5" transform="translate(-1404 2907)"/></g><g transform="translate(1536 -2677)"><circle class="c" cx="1.5" cy="1.5" r="1.5" transform="translate(-1404 2907)"/></g><g transform="translate(1558 -2677)"><circle class="c" cx="1.5" cy="1.5" r="1.5" transform="translate(-1404 2907)"/></g><g transform="translate(1580 -2677)"><circle class="c" cx="1.5" cy="1.5" r="1.5" transform="translate(-1404 2907)"/></g><g transform="translate(1602 -2677)"><circle class="c" cx="1.5" cy="1.5" r="1.5" transform="translate(-1404 2907)"/></g><g transform="translate(1624 -2677)"><circle class="c" cx="1.5" cy="1.5" r="1.5" transform="translate(-1404 2907)"/></g><g transform="translate(1646 -2677)"><circle class="c" cx="1.5" cy="1.5" r="1.5" transform="translate(-1404 2907)"/></g><g transform="translate(1668 -2677)"><circle class="c" cx="1.5" cy="1.5" r="1.5" transform="translate(-1404 2907)"/></g><g transform="translate(1690 -2677)"><circle class="c" cx="1.5" cy="1.5" r="1.5" transform="translate(-1404 2907)"/></g><g transform="translate(1712 -2677)"><circle class="c" cx="1.5" cy="1.5" r="1.5" transform="translate(-1404 2907)"/></g><g transform="translate(1734 -2677)"><circle class="c" cx="1.5" cy="1.5" r="1.5" transform="translate(-1404 2907)"/></g><g transform="translate(1756 -2677)"><circle class="c" cx="1.5" cy="1.5" r="1.5" transform="translate(-1404 2907)"/></g><g transform="translate(1778 -2677)"><circle class="c" cx="1.5" cy="1.5" r="1.5" transform="translate(-1404 2907)"/></g><g transform="translate(1800 -2677)"><circle class="c" cx="1.5" cy="1.5" r="1.5" transform="translate(-1404 2907)"/></g><g transform="translate(1822 -2677)"><circle class="c" cx="1.5" cy="1.5" r="1.5" transform="translate(-1404 2907)"/></g><g transform="translate(1844 -2677)"><circle class="c" cx="1.5" cy="1.5" r="1.5" transform="translate(-1404 2907)"/></g><g transform="translate(1866 -2677)"><circle class="c" cx="1.5" cy="1.5" r="1.5" transform="translate(-1404 2907)"/></g><g transform="translate(1888 -2677)"><circle class="c" cx="1.5" cy="1.5" r="1.5" transform="translate(-1404 2907)"/></g><g transform="translate(1910 -2677)"><circle class="c" cx="1.5" cy="1.5" r="1.5" transform="translate(-1404 2907)"/></g><g transform="translate(1932 -2677)"><circle class="c" cx="1.5" cy="1.5" r="1.5" transform="translate(-1404 2907)"/></g><g transform="translate(1954 -2677)"><circle class="c" cx="1.5" cy="1.5" r="1.5" transform="translate(-1404 2907)"/></g><g transform="translate(1976 -2677)"><circle class="c" cx="1.5" cy="1.5" r="1.5" transform="translate(-1404 2907)"/></g><g transform="translate(1998 -2677)"><circle class="c" cx="1.5" cy="1.5" r="1.5" transform="translate(-1404 2907)"/></g><g transform="translate(2020 -2677)"><circle class="c" cx="1.5" cy="1.5" r="1.5" transform="translate(-1404 2907)"/></g><g transform="translate(1404 -2654)"><circle class="c" cx="1.5" cy="1.5" r="1.5" transform="translate(-1404 2907)"/></g><g transform="translate(1426 -2654)"><circle class="c" cx="1.5" cy="1.5" r="1.5" transform="translate(-1404 2907)"/></g><g transform="translate(1448 -2654)"><circle class="c" cx="1.5" cy="1.5" r="1.5" transform="translate(-1404 2907)"/></g><g transform="translate(1470 -2654)"><circle class="c" cx="1.5" cy="1.5" r="1.5" transform="translate(-1404 2907)"/></g><g transform="translate(1492 -2654)"><circle class="c" cx="1.5" cy="1.5" r="1.5" transform="translate(-1404 2907)"/></g><g transform="translate(1514 -2654)"><circle class="c" cx="1.5" cy="1.5" r="1.5" transform="translate(-1404 2907)"/></g><g transform="translate(1536 -2654)"><circle class="c" cx="1.5" cy="1.5" r="1.5" transform="translate(-1404 2907)"/></g><g transform="translate(1558 -2654)"><circle class="c" cx="1.5" cy="1.5" r="1.5" transform="translate(-1404 2907)"/></g><g transform="translate(1580 -2654)"><circle class="c" cx="1.5" cy="1.5" r="1.5" transform="translate(-1404 2907)"/></g><g transform="translate(1602 -2654)"><circle class="c" cx="1.5" cy="1.5" r="1.5" transform="translate(-1404 2907)"/></g><g transform="translate(1624 -2654)"><circle class="c" cx="1.5" cy="1.5" r="1.5" transform="translate(-1404 2907)"/></g><g transform="translate(1646 -2654)"><circle class="c" cx="1.5" cy="1.5" r="1.5" transform="translate(-1404 2907)"/></g><g transform="translate(1668 -2654)"><circle class="c" cx="1.5" cy="1.5" r="1.5" transform="translate(-1404 2907)"/></g><g transform="translate(1690 -2654)"><circle class="c" cx="1.5" cy="1.5" r="1.5" transform="translate(-1404 2907)"/></g><g transform="translate(1712 -2654)"><circle class="c" cx="1.5" cy="1.5" r="1.5" transform="translate(-1404 2907)"/></g><g transform="translate(1734 -2654)"><circle class="c" cx="1.5" cy="1.5" r="1.5" transform="translate(-1404 2907)"/></g><g transform="translate(1756 -2654)"><circle class="c" cx="1.5" cy="1.5" r="1.5" transform="translate(-1404 2907)"/></g><g transform="translate(1778 -2654)"><circle class="c" cx="1.5" cy="1.5" r="1.5" transform="translate(-1404 2907)"/></g><g transform="translate(1800 -2654)"><circle class="c" cx="1.5" cy="1.5" r="1.5" transform="translate(-1404 2907)"/></g><g transform="translate(1822 -2654)"><circle class="c" cx="1.5" cy="1.5" r="1.5" transform="translate(-1404 2907)"/></g><g transform="translate(1844 -2654)"><circle class="c" cx="1.5" cy="1.5" r="1.5" transform="translate(-1404 2907)"/></g><g transform="translate(1866 -2654)"><circle class="c" cx="1.5" cy="1.5" r="1.5" transform="translate(-1404 2907)"/></g><g transform="translate(1888 -2654)"><circle class="c" cx="1.5" cy="1.5" r="1.5" transform="translate(-1404 2907)"/></g><g transform="translate(1910 -2654)"><circle class="c" cx="1.5" cy="1.5" r="1.5" transform="translate(-1404 2907)"/></g><g transform="translate(1932 -2654)"><circle class="c" cx="1.5" cy="1.5" r="1.5" transform="translate(-1404 2907)"/></g><g transform="translate(1954 -2654)"><circle class="c" cx="1.5" cy="1.5" r="1.5" transform="translate(-1404 2907)"/></g><g transform="translate(1976 -2654)"><circle class="c" cx="1.5" cy="1.5" r="1.5" transform="translate(-1404 2907)"/></g><g transform="translate(1998 -2654)"><circle class="c" cx="1.5" cy="1.5" r="1.5" transform="translate(-1404 2907)"/></g><g transform="translate(2020 -2654)"><circle class="c" cx="1.5" cy="1.5" r="1.5" transform="translate(-1404 2907)"/></g><g transform="translate(1404 -2631)"><circle class="c" cx="1.5" cy="1.5" r="1.5" transform="translate(-1404 2907)"/></g><g transform="translate(1426 -2631)"><circle class="c" cx="1.5" cy="1.5" r="1.5" transform="translate(-1404 2907)"/></g><g transform="translate(1448 -2631)"><circle class="c" cx="1.5" cy="1.5" r="1.5" transform="translate(-1404 2907)"/></g><g transform="translate(1470 -2631)"><circle class="c" cx="1.5" cy="1.5" r="1.5" transform="translate(-1404 2907)"/></g><g transform="translate(1492 -2631)"><circle class="c" cx="1.5" cy="1.5" r="1.5" transform="translate(-1404 2907)"/></g><g transform="translate(1514 -2631)"><circle class="c" cx="1.5" cy="1.5" r="1.5" transform="translate(-1404 2907)"/></g><g transform="translate(1536 -2631)"><circle class="c" cx="1.5" cy="1.5" r="1.5" transform="translate(-1404 2907)"/></g><g transform="translate(1558 -2631)"><circle class="c" cx="1.5" cy="1.5" r="1.5" transform="translate(-1404 2907)"/></g><g transform="translate(1580 -2631)"><circle class="c" cx="1.5" cy="1.5" r="1.5" transform="translate(-1404 2907)"/></g><g transform="translate(1602 -2631)"><circle class="c" cx="1.5" cy="1.5" r="1.5" transform="translate(-1404 2907)"/></g><g transform="translate(1624 -2631)"><circle class="c" cx="1.5" cy="1.5" r="1.5" transform="translate(-1404 2907)"/></g><g transform="translate(1646 -2631)"><circle class="c" cx="1.5" cy="1.5" r="1.5" transform="translate(-1404 2907)"/></g><g transform="translate(1668 -2631)"><circle class="c" cx="1.5" cy="1.5" r="1.5" transform="translate(-1404 2907)"/></g><g transform="translate(1690 -2631)"><circle class="c" cx="1.5" cy="1.5" r="1.5" transform="translate(-1404 2907)"/></g><g transform="translate(1712 -2631)"><circle class="c" cx="1.5" cy="1.5" r="1.5" transform="translate(-1404 2907)"/></g><g transform="translate(1734 -2631)"><circle class="c" cx="1.5" cy="1.5" r="1.5" transform="translate(-1404 2907)"/></g><g transform="translate(1756 -2631)"><circle class="c" cx="1.5" cy="1.5" r="1.5" transform="translate(-1404 2907)"/></g><g transform="translate(1778 -2631)"><circle class="c" cx="1.5" cy="1.5" r="1.5" transform="translate(-1404 2907)"/></g><g transform="translate(1800 -2631)"><circle class="c" cx="1.5" cy="1.5" r="1.5" transform="translate(-1404 2907)"/></g><g transform="translate(1822 -2631)"><circle class="c" cx="1.5" cy="1.5" r="1.5" transform="translate(-1404 2907)"/></g><g transform="translate(1844 -2631)"><circle class="c" cx="1.5" cy="1.5" r="1.5" transform="translate(-1404 2907)"/></g><g transform="translate(1866 -2631)"><circle class="c" cx="1.5" cy="1.5" r="1.5" transform="translate(-1404 2907)"/></g><g transform="translate(1888 -2631)"><circle class="c" cx="1.5" cy="1.5" r="1.5" transform="translate(-1404 2907)"/></g><g transform="translate(1910 -2631)"><circle class="c" cx="1.5" cy="1.5" r="1.5" transform="translate(-1404 2907)"/></g><g transform="translate(1932 -2631)"><circle class="c" cx="1.5" cy="1.5" r="1.5" transform="translate(-1404 2907)"/></g><g transform="translate(1954 -2631)"><circle class="c" cx="1.5" cy="1.5" r="1.5" transform="translate(-1404 2907)"/></g><g transform="translate(1976 -2631)"><circle class="c" cx="1.5" cy="1.5" r="1.5" transform="translate(-1404 2907)"/></g><g transform="translate(1998 -2631)"><circle class="c" cx="1.5" cy="1.5" r="1.5" transform="translate(-1404 2907)"/></g><g transform="translate(2020 -2631)"><circle class="c" cx="1.5" cy="1.5" r="1.5" transform="translate(-1404 2907)"/></g><g transform="translate(1404 -2608)"><circle class="c" cx="1.5" cy="1.5" r="1.5" transform="translate(-1404 2907)"/></g><g transform="translate(1426 -2608)"><circle class="c" cx="1.5" cy="1.5" r="1.5" transform="translate(-1404 2907)"/></g><g transform="translate(1448 -2608)"><circle class="c" cx="1.5" cy="1.5" r="1.5" transform="translate(-1404 2907)"/></g><g transform="translate(1470 -2608)"><circle class="c" cx="1.5" cy="1.5" r="1.5" transform="translate(-1404 2907)"/></g><g transform="translate(1492 -2608)"><circle class="c" cx="1.5" cy="1.5" r="1.5" transform="translate(-1404 2907)"/></g><g transform="translate(1514 -2608)"><circle class="c" cx="1.5" cy="1.5" r="1.5" transform="translate(-1404 2907)"/></g><g transform="translate(1536 -2608)"><circle class="c" cx="1.5" cy="1.5" r="1.5" transform="translate(-1404 2907)"/></g><g transform="translate(1558 -2608)"><circle class="c" cx="1.5" cy="1.5" r="1.5" transform="translate(-1404 2907)"/></g><g transform="translate(1580 -2608)"><circle class="c" cx="1.5" cy="1.5" r="1.5" transform="translate(-1404 2907)"/></g><g transform="translate(1602 -2608)"><circle class="c" cx="1.5" cy="1.5" r="1.5" transform="translate(-1404 2907)"/></g><g transform="translate(1624 -2608)"><circle class="c" cx="1.5" cy="1.5" r="1.5" transform="translate(-1404 2907)"/></g><g transform="translate(1646 -2608)"><circle class="c" cx="1.5" cy="1.5" r="1.5" transform="translate(-1404 2907)"/></g><g transform="translate(1668 -2608)"><circle class="c" cx="1.5" cy="1.5" r="1.5" transform="translate(-1404 2907)"/></g><g transform="translate(1690 -2608)"><circle class="c" cx="1.5" cy="1.5" r="1.5" transform="translate(-1404 2907)"/></g><g transform="translate(1712 -2608)"><circle class="c" cx="1.5" cy="1.5" r="1.5" transform="translate(-1404 2907)"/></g><g transform="translate(1734 -2608)"><circle class="c" cx="1.5" cy="1.5" r="1.5" transform="translate(-1404 2907)"/></g><g transform="translate(1756 -2608)"><circle class="c" cx="1.5" cy="1.5" r="1.5" transform="translate(-1404 2907)"/></g><g transform="translate(1778 -2608)"><circle class="c" cx="1.5" cy="1.5" r="1.5" transform="translate(-1404 2907)"/></g><g transform="translate(1800 -2608)"><circle class="c" cx="1.5" cy="1.5" r="1.5" transform="translate(-1404 2907)"/></g><g transform="translate(1822 -2608)"><circle class="c" cx="1.5" cy="1.5" r="1.5" transform="translate(-1404 2907)"/></g><g transform="translate(1844 -2608)"><circle class="c" cx="1.5" cy="1.5" r="1.5" transform="translate(-1404 2907)"/></g><g transform="translate(1866 -2608)"><circle class="c" cx="1.5" cy="1.5" r="1.5" transform="translate(-1404 2907)"/></g><g transform="translate(1888 -2608)"><circle class="c" cx="1.5" cy="1.5" r="1.5" transform="translate(-1404 2907)"/></g><g transform="translate(1910 -2608)"><circle class="c" cx="1.5" cy="1.5" r="1.5" transform="translate(-1404 2907)"/></g><g transform="translate(1932 -2608)"><circle class="c" cx="1.5" cy="1.5" r="1.5" transform="translate(-1404 2907)"/></g><g transform="translate(1954 -2608)"><circle class="c" cx="1.5" cy="1.5" r="1.5" transform="translate(-1404 2907)"/></g><g transform="translate(1976 -2608)"><circle class="c" cx="1.5" cy="1.5" r="1.5" transform="translate(-1404 2907)"/></g><g transform="translate(1998 -2608)"><circle class="c" cx="1.5" cy="1.5" r="1.5" transform="translate(-1404 2907)"/></g><g transform="translate(2020 -2608)"><circle class="c" cx="1.5" cy="1.5" r="1.5" transform="translate(-1404 2907)"/></g><g transform="translate(1404 -2585)"><circle class="c" cx="1.5" cy="1.5" r="1.5" transform="translate(-1404 2907)"/></g><g transform="translate(1426 -2585)"><circle class="c" cx="1.5" cy="1.5" r="1.5" transform="translate(-1404 2907)"/></g><g transform="translate(1448 -2585)"><circle class="c" cx="1.5" cy="1.5" r="1.5" transform="translate(-1404 2907)"/></g><g transform="translate(1470 -2585)"><circle class="c" cx="1.5" cy="1.5" r="1.5" transform="translate(-1404 2907)"/></g><g transform="translate(1492 -2585)"><circle class="c" cx="1.5" cy="1.5" r="1.5" transform="translate(-1404 2907)"/></g><g transform="translate(1514 -2585)"><circle class="c" cx="1.5" cy="1.5" r="1.5" transform="translate(-1404 2907)"/></g><g transform="translate(1536 -2585)"><circle class="c" cx="1.5" cy="1.5" r="1.5" transform="translate(-1404 2907)"/></g><g transform="translate(1558 -2585)"><circle class="c" cx="1.5" cy="1.5" r="1.5" transform="translate(-1404 2907)"/></g><g transform="translate(1580 -2585)"><circle class="c" cx="1.5" cy="1.5" r="1.5" transform="translate(-1404 2907)"/></g><g transform="translate(1602 -2585)"><circle class="c" cx="1.5" cy="1.5" r="1.5" transform="translate(-1404 2907)"/></g><g transform="translate(1624 -2585)"><circle class="c" cx="1.5" cy="1.5" r="1.5" transform="translate(-1404 2907)"/></g><g transform="translate(1646 -2585)"><circle class="c" cx="1.5" cy="1.5" r="1.5" transform="translate(-1404 2907)"/></g><g transform="translate(1668 -2585)"><circle class="c" cx="1.5" cy="1.5" r="1.5" transform="translate(-1404 2907)"/></g><g transform="translate(1690 -2585)"><circle class="c" cx="1.5" cy="1.5" r="1.5" transform="translate(-1404 2907)"/></g><g transform="translate(1712 -2585)"><circle class="c" cx="1.5" cy="1.5" r="1.5" transform="translate(-1404 2907)"/></g><g transform="translate(1734 -2585)"><circle class="c" cx="1.5" cy="1.5" r="1.5" transform="translate(-1404 2907)"/></g><g transform="translate(1756 -2585)"><circle class="c" cx="1.5" cy="1.5" r="1.5" transform="translate(-1404 2907)"/></g><g transform="translate(1778 -2585)"><circle class="c" cx="1.5" cy="1.5" r="1.5" transform="translate(-1404 2907)"/></g><g transform="translate(1800 -2585)"><circle class="c" cx="1.5" cy="1.5" r="1.5" transform="translate(-1404 2907)"/></g><g transform="translate(1822 -2585)"><circle class="c" cx="1.5" cy="1.5" r="1.5" transform="translate(-1404 2907)"/></g><g transform="translate(1844 -2585)"><circle class="c" cx="1.5" cy="1.5" r="1.5" transform="translate(-1404 2907)"/></g><g transform="translate(1866 -2585)"><circle class="c" cx="1.5" cy="1.5" r="1.5" transform="translate(-1404 2907)"/></g><g transform="translate(1888 -2585)"><circle class="c" cx="1.5" cy="1.5" r="1.5" transform="translate(-1404 2907)"/></g><g transform="translate(1910 -2585)"><circle class="c" cx="1.5" cy="1.5" r="1.5" transform="translate(-1404 2907)"/></g><g transform="translate(1932 -2585)"><circle class="c" cx="1.5" cy="1.5" r="1.5" transform="translate(-1404 2907)"/></g><g transform="translate(1954 -2585)"><circle class="c" cx="1.5" cy="1.5" r="1.5" transform="translate(-1404 2907)"/></g><g transform="translate(1976 -2585)"><circle class="c" cx="1.5" cy="1.5" r="1.5" transform="translate(-1404 2907)"/></g><g transform="translate(1998 -2585)"><circle class="c" cx="1.5" cy="1.5" r="1.5" transform="translate(-1404 2907)"/></g><g transform="translate(2020 -2585)"><circle class="c" cx="1.5" cy="1.5" r="1.5" transform="translate(-1404 2907)"/></g><g transform="translate(1404 -2562)"><circle class="c" cx="1.5" cy="1.5" r="1.5" transform="translate(-1404 2907)"/></g><g transform="translate(1426 -2562)"><circle class="c" cx="1.5" cy="1.5" r="1.5" transform="translate(-1404 2907)"/></g><g transform="translate(1448 -2562)"><circle class="c" cx="1.5" cy="1.5" r="1.5" transform="translate(-1404 2907)"/></g><g transform="translate(1470 -2562)"><circle class="c" cx="1.5" cy="1.5" r="1.5" transform="translate(-1404 2907)"/></g><g transform="translate(1492 -2562)"><circle class="c" cx="1.5" cy="1.5" r="1.5" transform="translate(-1404 2907)"/></g><g transform="translate(1514 -2562)"><circle class="c" cx="1.5" cy="1.5" r="1.5" transform="translate(-1404 2907)"/></g><g transform="translate(1536 -2562)"><circle class="c" cx="1.5" cy="1.5" r="1.5" transform="translate(-1404 2907)"/></g><g transform="translate(1558 -2562)"><circle class="c" cx="1.5" cy="1.5" r="1.5" transform="translate(-1404 2907)"/></g><g transform="translate(1580 -2562)"><circle class="c" cx="1.5" cy="1.5" r="1.5" transform="translate(-1404 2907)"/></g><g transform="translate(1602 -2562)"><circle class="c" cx="1.5" cy="1.5" r="1.5" transform="translate(-1404 2907)"/></g><g transform="translate(1624 -2562)"><circle class="c" cx="1.5" cy="1.5" r="1.5" transform="translate(-1404 2907)"/></g><g transform="translate(1646 -2562)"><circle class="c" cx="1.5" cy="1.5" r="1.5" transform="translate(-1404 2907)"/></g><g transform="translate(1668 -2562)"><circle class="c" cx="1.5" cy="1.5" r="1.5" transform="translate(-1404 2907)"/></g><g transform="translate(1690 -2562)"><circle class="c" cx="1.5" cy="1.5" r="1.5" transform="translate(-1404 2907)"/></g><g transform="translate(1712 -2562)"><circle class="c" cx="1.5" cy="1.5" r="1.5" transform="translate(-1404 2907)"/></g><g transform="translate(1734 -2562)"><circle class="c" cx="1.5" cy="1.5" r="1.5" transform="translate(-1404 2907)"/></g><g transform="translate(1756 -2562)"><circle class="c" cx="1.5" cy="1.5" r="1.5" transform="translate(-1404 2907)"/></g><g transform="translate(1778 -2562)"><circle class="c" cx="1.5" cy="1.5" r="1.5" transform="translate(-1404 2907)"/></g><g transform="translate(1800 -2562)"><circle class="c" cx="1.5" cy="1.5" r="1.5" transform="translate(-1404 2907)"/></g><g transform="translate(1822 -2562)"><circle class="c" cx="1.5" cy="1.5" r="1.5" transform="translate(-1404 2907)"/></g><g transform="translate(1844 -2562)"><circle class="c" cx="1.5" cy="1.5" r="1.5" transform="translate(-1404 2907)"/></g><g transform="translate(1866 -2562)"><circle class="c" cx="1.5" cy="1.5" r="1.5" transform="translate(-1404 2907)"/></g><g transform="translate(1888 -2562)"><circle class="c" cx="1.5" cy="1.5" r="1.5" transform="translate(-1404 2907)"/></g><g transform="translate(1910 -2562)"><circle class="c" cx="1.5" cy="1.5" r="1.5" transform="translate(-1404 2907)"/></g><g transform="translate(1932 -2562)"><circle class="c" cx="1.5" cy="1.5" r="1.5" transform="translate(-1404 2907)"/></g><g transform="translate(1954 -2562)"><circle class="c" cx="1.5" cy="1.5" r="1.5" transform="translate(-1404 2907)"/></g><g transform="translate(1976 -2562)"><circle class="c" cx="1.5" cy="1.5" r="1.5" transform="translate(-1404 2907)"/></g><g transform="translate(1998 -2562)"><circle class="c" cx="1.5" cy="1.5" r="1.5" transform="translate(-1404 2907)"/></g><g transform="translate(2020 -2562)"><circle class="c" cx="1.5" cy="1.5" r="1.5" transform="translate(-1404 2907)"/></g><g transform="translate(1404 -2539)"><circle class="c" cx="1.5" cy="1.5" r="1.5" transform="translate(-1404 2907)"/></g><g transform="translate(1426 -2539)"><circle class="c" cx="1.5" cy="1.5" r="1.5" transform="translate(-1404 2907)"/></g><g transform="translate(1448 -2539)"><circle class="c" cx="1.5" cy="1.5" r="1.5" transform="translate(-1404 2907)"/></g><g transform="translate(1470 -2539)"><circle class="c" cx="1.5" cy="1.5" r="1.5" transform="translate(-1404 2907)"/></g><g transform="translate(1492 -2539)"><circle class="c" cx="1.5" cy="1.5" r="1.5" transform="translate(-1404 2907)"/></g><g transform="translate(1514 -2539)"><circle class="c" cx="1.5" cy="1.5" r="1.5" transform="translate(-1404 2907)"/></g><g transform="translate(1536 -2539)"><circle class="c" cx="1.5" cy="1.5" r="1.5" transform="translate(-1404 2907)"/></g><g transform="translate(1558 -2539)"><circle class="c" cx="1.5" cy="1.5" r="1.5" transform="translate(-1404 2907)"/></g><g transform="translate(1580 -2539)"><circle class="c" cx="1.5" cy="1.5" r="1.5" transform="translate(-1404 2907)"/></g><g transform="translate(1602 -2539)"><circle class="c" cx="1.5" cy="1.5" r="1.5" transform="translate(-1404 2907)"/></g><g transform="translate(1624 -2539)"><circle class="c" cx="1.5" cy="1.5" r="1.5" transform="translate(-1404 2907)"/></g><g transform="translate(1646 -2539)"><circle class="c" cx="1.5" cy="1.5" r="1.5" transform="translate(-1404 2907)"/></g><g transform="translate(1668 -2539)"><circle class="c" cx="1.5" cy="1.5" r="1.5" transform="translate(-1404 2907)"/></g><g transform="translate(1690 -2539)"><circle class="c" cx="1.5" cy="1.5" r="1.5" transform="translate(-1404 2907)"/></g><g transform="translate(1712 -2539)"><circle class="c" cx="1.5" cy="1.5" r="1.5" transform="translate(-1404 2907)"/></g><g transform="translate(1734 -2539)"><circle class="c" cx="1.5" cy="1.5" r="1.5" transform="translate(-1404 2907)"/></g><g transform="translate(1756 -2539)"><circle class="c" cx="1.5" cy="1.5" r="1.5" transform="translate(-1404 2907)"/></g><g transform="translate(1778 -2539)"><circle class="c" cx="1.5" cy="1.5" r="1.5" transform="translate(-1404 2907)"/></g><g transform="translate(1800 -2539)"><circle class="c" cx="1.5" cy="1.5" r="1.5" transform="translate(-1404 2907)"/></g><g transform="translate(1822 -2539)"><circle class="c" cx="1.5" cy="1.5" r="1.5" transform="translate(-1404 2907)"/></g><g transform="translate(1844 -2539)"><circle class="c" cx="1.5" cy="1.5" r="1.5" transform="translate(-1404 2907)"/></g><g transform="translate(1866 -2539)"><circle class="c" cx="1.5" cy="1.5" r="1.5" transform="translate(-1404 2907)"/></g><g transform="translate(1888 -2539)"><circle class="c" cx="1.5" cy="1.5" r="1.5" transform="translate(-1404 2907)"/></g><g transform="translate(1910 -2539)"><circle class="c" cx="1.5" cy="1.5" r="1.5" transform="translate(-1404 2907)"/></g><g transform="translate(1932 -2539)"><circle class="c" cx="1.5" cy="1.5" r="1.5" transform="translate(-1404 2907)"/></g><g transform="translate(1954 -2539)"><circle class="c" cx="1.5" cy="1.5" r="1.5" transform="translate(-1404 2907)"/></g><g transform="translate(1976 -2539)"><circle class="c" cx="1.5" cy="1.5" r="1.5" transform="translate(-1404 2907)"/></g><g transform="translate(1998 -2539)"><circle class="c" cx="1.5" cy="1.5" r="1.5" transform="translate(-1404 2907)"/></g><g transform="translate(2020 -2539)"><circle class="c" cx="1.5" cy="1.5" r="1.5" transform="translate(-1404 2907)"/></g><g transform="translate(1404 -2516)"><circle class="c" cx="1.5" cy="1.5" r="1.5" transform="translate(-1404 2907)"/></g><g transform="translate(1426 -2516)"><circle class="c" cx="1.5" cy="1.5" r="1.5" transform="translate(-1404 2907)"/></g><g transform="translate(1448 -2516)"><circle class="c" cx="1.5" cy="1.5" r="1.5" transform="translate(-1404 2907)"/></g><g transform="translate(1470 -2516)"><circle class="c" cx="1.5" cy="1.5" r="1.5" transform="translate(-1404 2907)"/></g><g transform="translate(1492 -2516)"><circle class="c" cx="1.5" cy="1.5" r="1.5" transform="translate(-1404 2907)"/></g><g transform="translate(1514 -2516)"><circle class="c" cx="1.5" cy="1.5" r="1.5" transform="translate(-1404 2907)"/></g><g transform="translate(1536 -2516)"><circle class="c" cx="1.5" cy="1.5" r="1.5" transform="translate(-1404 2907)"/></g><g transform="translate(1558 -2516)"><circle class="c" cx="1.5" cy="1.5" r="1.5" transform="translate(-1404 2907)"/></g><g transform="translate(1580 -2516)"><circle class="c" cx="1.5" cy="1.5" r="1.5" transform="translate(-1404 2907)"/></g><g transform="translate(1602 -2516)"><circle class="c" cx="1.5" cy="1.5" r="1.5" transform="translate(-1404 2907)"/></g><g transform="translate(1624 -2516)"><circle class="c" cx="1.5" cy="1.5" r="1.5" transform="translate(-1404 2907)"/></g><g transform="translate(1646 -2516)"><circle class="c" cx="1.5" cy="1.5" r="1.5" transform="translate(-1404 2907)"/></g><g transform="translate(1668 -2516)"><circle class="c" cx="1.5" cy="1.5" r="1.5" transform="translate(-1404 2907)"/></g><g transform="translate(1690 -2516)"><circle class="c" cx="1.5" cy="1.5" r="1.5" transform="translate(-1404 2907)"/></g><g transform="translate(1712 -2516)"><circle class="c" cx="1.5" cy="1.5" r="1.5" transform="translate(-1404 2907)"/></g><g transform="translate(1734 -2516)"><circle class="c" cx="1.5" cy="1.5" r="1.5" transform="translate(-1404 2907)"/></g><g transform="translate(1756 -2516)"><circle class="c" cx="1.5" cy="1.5" r="1.5" transform="translate(-1404 2907)"/></g><g transform="translate(1778 -2516)"><circle class="c" cx="1.5" cy="1.5" r="1.5" transform="translate(-1404 2907)"/></g><g transform="translate(1800 -2516)"><circle class="c" cx="1.5" cy="1.5" r="1.5" transform="translate(-1404 2907)"/></g><g transform="translate(1822 -2516)"><circle class="c" cx="1.5" cy="1.5" r="1.5" transform="translate(-1404 2907)"/></g><g transform="translate(1844 -2516)"><circle class="c" cx="1.5" cy="1.5" r="1.5" transform="translate(-1404 2907)"/></g><g transform="translate(1866 -2516)"><circle class="c" cx="1.5" cy="1.5" r="1.5" transform="translate(-1404 2907)"/></g><g transform="translate(1888 -2516)"><circle class="c" cx="1.5" cy="1.5" r="1.5" transform="translate(-1404 2907)"/></g><g transform="translate(1910 -2516)"><circle class="c" cx="1.5" cy="1.5" r="1.5" transform="translate(-1404 2907)"/></g><g transform="translate(1932 -2516)"><circle class="c" cx="1.5" cy="1.5" r="1.5" transform="translate(-1404 2907)"/></g><g transform="translate(1954 -2516)"><circle class="c" cx="1.5" cy="1.5" r="1.5" transform="translate(-1404 2907)"/></g><g transform="translate(1976 -2516)"><circle class="c" cx="1.5" cy="1.5" r="1.5" transform="translate(-1404 2907)"/></g><g transform="translate(1998 -2516)"><circle class="c" cx="1.5" cy="1.5" r="1.5" transform="translate(-1404 2907)"/></g><g transform="translate(2020 -2516)"><circle class="c" cx="1.5" cy="1.5" r="1.5" transform="translate(-1404 2907)"/></g></g></g><rect class="d" width="442" height="402" transform="translate(1662 275)"/></g></svg>