<svg xmlns="http://www.w3.org/2000/svg" width="242" height="231" viewBox="0 0 242 231"><defs><style>.a{fill:#f8f0e1;}.b{fill:#d52934;}.c{fill:#c1691c;}.d,.f{fill:#d8ad61;}.e{fill:#c7913e;}.f,.g,.h,.i,.k,.l,.m,.q,.r,.s{stroke:#222525;}.f,.g{stroke-linejoin:round;}.f,.g,.h,.i,.k{stroke-width:6px;}.g,.h,.i,.j,.k,.l,.m,.n,.o,.p{fill:none;}.h,.k,.l,.m,.n,.o,.p,.q,.r,.s{stroke-miterlimit:10;}.i{stroke-linejoin:bevel;}.k{stroke-linecap:round;}.l{stroke-width:7px;}.m,.p{stroke-width:2px;}.n,.o,.p{stroke:#807560;}.n{stroke-width:3px;}.o{stroke-width:4px;}.q,.r,.s{fill:#222525;font-family:MyriadPro-Regular, Myriad Pro;}.q{font-size:13px;}.r{font-size:7px;}.s{font-size:5px;}</style></defs><g transform="translate(-0.138 0.047)"><circle class="a" cx="115.5" cy="115.5" r="115.5" transform="translate(0.138 -0.047)"/><g transform="translate(6.069 17.052)"><path class="b" d="M333.046,381.034a2.023,2.023,0,0,1-4.046,0A2.023,2.023,0,0,1,333.046,381.034Z" transform="translate(-194.797 -238.931)"/><path class="c" d="M342.557,252.561v-27.12l4.046-2.7V216H324.349L323,221.4v2.7l3.372,1.349,2.312-.771.145,16.33,11.705,10.068Z" transform="translate(-192.844 -185.845)"/><path class="d" d="M208,398.673h10.79V369L208,400.022Z" transform="translate(-155.398 -235.664)"/><path class="d" d="M191,398.673h10.79V369L191,400.022Z" transform="translate(-149.862 -235.664)"/><path class="b" d="M333.046,381.034a2.023,2.023,0,0,1-4.046,0A2.023,2.023,0,0,1,333.046,381.034Z" transform="translate(-194.797 -238.931)"/><path class="d" d="M175,398.673h10.79V369L175,400.022Z" transform="translate(-144.653 -235.664)"/><path class="d" d="M249,330v24.278h24.278V330H249Z" transform="translate(-168.748 -222.965)"/><path class="d" d="M305,388.184V343h24.278v45.184Z" transform="translate(-186.982 -227.198)"/><path class="d" d="M277.737,225.429,230,275.718l102.507.674-54.77-50.964Z" transform="translate(-162.561 -188.915)"/><path class="e" d="M299.448,225.407l-2.778,2.88,2.738-2.927Z" transform="translate(-184.27 -188.893)"/><g transform="translate(0 28.806)"><path class="f" d="M269.09,221.418l-2.92,3.17-46.216,47.841L203,272.672,262.346,214Z" transform="translate(-153.77 -214)"/><path class="g" d="M262.346,214l7.243,6.926L289.753,240.2l1.517,1.457,32.445,31.015H203l16.954-.243,46.216-47.841" transform="translate(-153.77 -214)"/><path class="h" d="M301.915,224l-.175.182.175-.182" transform="translate(-185.921 -217.256)"/><path class="h" d="M274.636,229.7l-3.345,3.574-41.03,43.842-.627.668-.634.674" transform="translate(-162.236 -219.112)"/><line class="h" y1="14" transform="translate(135.069 11.095)"/><line class="h" y1="27" transform="translate(150.069 12.095)"/><path class="i" d="M324,219.349v6.069h23.6V218H324Z" transform="translate(-193.169 -215.302)"/><line class="j" transform="translate(135.069 19.095)"/><line class="k" x2="7" transform="translate(135.069 19.095)"/><path class="l" d="M223.393,301v75.194h91.114V302.012" transform="translate(-160.41 -242.328)"/><line class="k" x2="233" transform="translate(0.069 134.095)"/><path class="h" d="M212.254,365c-2.967.064-5.254,2.247-5.254,4.74v27.607c.018.072,10.769.02,10.79,0V369.532C217.79,366.989,215.3,364.937,212.254,365Z" transform="translate(-155.072 -263.168)"/><path class="h" d="M196.254,365c-2.967.064-5.254,2.247-5.254,4.74v27.607c.018.072,10.769.02,10.79,0V369.532C201.79,366.989,199.3,364.937,196.254,365Z" transform="translate(-149.862 -263.168)"/><path class="h" d="M180.254,365c-2.967.064-5.254,2.247-5.254,4.74v27.607c.018.072,10.769.02,10.79,0V369.532C185.79,366.989,183.3,364.937,180.254,365Z" transform="translate(-144.653 -263.168)"/><path class="h" d="M395.254,362c-2.967.064-5.254,2.247-5.254,4.74v27.607c.018.072,10.769.02,10.79,0V366.532C400.79,363.989,398.3,361.937,395.254,362Z" transform="translate(-214.66 -262.191)"/><path class="h" d="M379.254,362c-2.967.064-5.254,2.247-5.254,4.74v27.607c.018.072,10.769.02,10.79,0V366.532C384.79,363.989,382.3,361.937,379.254,362Z" transform="translate(-209.45 -262.191)"/><path class="h" d="M363.254,362c-2.967.064-5.254,2.247-5.254,4.74v27.607c.018.072,10.769.02,10.79,0V366.532C368.79,363.989,366.3,361.937,363.254,362Z" transform="translate(-204.24 -262.191)"/><rect class="g" width="24" height="24" transform="translate(77.069 75.095)"/><line class="h" y1="23" transform="translate(89.069 75.095)"/><line class="h" x2="24" transform="translate(77.069 86.095)"/><rect class="g" width="24" height="47" transform="translate(118.069 87.095)"/><path class="m" d="M333.046,381.034a2.023,2.023,0,0,1-4.046,0A2.023,2.023,0,0,1,333.046,381.034Z" transform="translate(-194.797 -267.737)"/></g><path class="n" d="M406.9,333.209a2.7,2.7,0,0,1-5.4,0A2.7,2.7,0,0,1,406.9,333.209Z" transform="translate(-218.404 -223.139)"/><path class="o" d="M179.744,326.386a3.372,3.372,0,0,1-6.744,0A3.372,3.372,0,0,1,179.744,326.386Z" transform="translate(-144.001 -220.7)"/><path class="p" d="M225.372,213.695a1.686,1.686,0,0,1-3.372,0A1.686,1.686,0,0,1,225.372,213.695Z" transform="translate(-159.957 -184.551)"/><path class="n" d="M346.817,197.386a2.409,2.409,0,0,1-4.817,0A2.409,2.409,0,0,1,346.817,197.386Z" transform="translate(-199.03 -179.008)"/><text class="q" transform="translate(118.692 10)"><tspan x="0" y="0">+</tspan></text><text class="r" transform="translate(189.178 24.554)"><tspan x="0" y="0">+</tspan></text><text class="s" transform="translate(173.595 98.492)"><tspan x="0" y="0">+</tspan></text><text class="s" transform="translate(46.251 47.889)"><tspan x="0" y="0">+</tspan></text></g></g></svg>