<svg xmlns="http://www.w3.org/2000/svg" width="231" height="231" viewBox="0 0 231 231"><defs><style>.a{fill:#f8f0e1;}.b{fill:#d8ad61;}.c,.d,.g,.h{fill:none;}.c,.d,.e,.f{stroke:#222525;}.c{stroke-linecap:round;}.c,.d,.e,.f,.g,.h{stroke-miterlimit:10;}.c,.d{stroke-width:9px;}.e,.f{fill:#222525;font-family:MyriadPro-Regular, Myriad Pro;}.e{font-size:24px;}.f{font-size:13px;}.g,.h{stroke:#807560;}.g{stroke-width:4px;}.h{stroke-width:2px;}</style></defs><g transform="translate(0 0.13)"><circle class="a" cx="115.5" cy="115.5" r="115.5" transform="translate(0 -0.13)"/><path class="b" d="M472.788,729.6c32.151-17.694,71.448-42.733,71.448-95.546l-.136-.023c.063-.887.135-1.771.135-2.673a37.488,37.488,0,0,0-71.448-15.9,37.488,37.488,0,0,0-71.448,15.9c0,.6.061,1.181.089,1.772l-.089.014c0,53.314,39.3,78.592,71.448,96.453" transform="translate(-354.578 -532.58)"/><path class="c" d="M500.614,697.676c19.63-16.342,35.283-38.61,35.283-71.941l-.136-.023c.063-.887.136-1.771.136-2.673a37.488,37.488,0,0,0-71.449-15.9A37.488,37.488,0,0,0,393,623.039c0,.6.061,1.181.09,1.772l-.09.014c0,53.314,39.3,78.591,71.448,96.453" transform="translate(-351.862 -529.872)"/><path class="d" d="M498.946,775.428c11.86-6.527,24.693-14.053,36.166-23.6" transform="translate(-386.36 -584.021)"/><text class="e" transform="translate(171.078 55.701)"><tspan x="0" y="0">+</tspan></text><text class="f" transform="translate(182.258 62.643)"><tspan x="0" y="0">+</tspan></text><path class="g" d="M405,751.493a3.372,3.372,0,0,1,6.744,0,3.372,3.372,0,0,1-6.744,0" transform="translate(-355.77 -582.825)"/><path class="h" d="M398.536,729.72a1.7,1.7,0,0,1,3.395,0,1.7,1.7,0,0,1-3.395,0" transform="translate(-353.665 -576.275)"/></g></svg>