<svg xmlns="http://www.w3.org/2000/svg" width="231" height="231" viewBox="0 0 231 231"><defs><style>.a{fill:#f8f0e1;}.b{fill:#d8ad61;}.c,.d,.e{fill:none;}.c,.f,.g,.h{stroke:#222525;}.c{stroke-linecap:round;stroke-width:7px;}.c,.d,.e,.f,.g,.h{stroke-miterlimit:10;}.d,.e{stroke:#807560;}.d{stroke-width:4px;}.e{stroke-width:2px;}.f,.g,.h{fill:#222525;font-family:MyriadPro-Regular, Myriad Pro;}.f{font-size:13px;}.g{font-size:24px;}.h{font-size:7px;}</style></defs><g transform="translate(-0.069 -0.314)"><circle class="a" cx="115.5" cy="115.5" r="115.5" transform="translate(0.069 0.314)"/><g transform="translate(59.346 53.339)"><path class="b" d="M725.607,251.795s-9.207,0-27.634-6.144a88.129,88.129,0,0,1-8.957-3.509c-11.958-5.46-17.032-11.231-17.032-11.231s-7.538,8.6-25.965,14.739-27.633,6.144-27.633,6.144-3.069,55.273,12.282,76.769,41.316,35.624,41.316,35.624A150.31,150.31,0,0,0,692.379,350.2a114.166,114.166,0,0,0,20.945-21.636C728.682,307.068,725.607,251.795,725.607,251.795Zm-61.389,62.49L642.523,292.59l1.55-1.55,6.2-6.2,13.946,13.946,24.794-24.794,7.749,7.748Z" transform="translate(-612.649 -225.638)"/><path class="c" d="M705.188,320.744a114.19,114.19,0,0,1-20.945,21.636,150.288,150.288,0,0,1-20.395,13.988s-25.965-14.128-41.316-35.624-12.283-76.769-12.283-76.769,9.214,0,27.634-6.144,25.965-14.74,25.965-14.74,5.074,5.771,17.032,11.231a88.283,88.283,0,0,0,8.957,3.509c18.426,6.144,27.633,6.144,27.633,6.144S720.545,299.249,705.188,320.744Z" transform="translate(-610 -223.092)"/></g><path class="d" d="M793.285,375.457a3.372,3.372,0,0,1,6.744,0,3.372,3.372,0,0,1-6.744,0" transform="translate(-610.334 -218.277)"/><path class="e" d="M781.785,360.266a1.686,1.686,0,0,1,3.372,0,1.686,1.686,0,0,1-3.372,0" transform="translate(-606.59 -213.876)"/><text class="f" transform="translate(40.637 121.796)"><tspan x="0" y="0">+</tspan></text><text class="g" transform="translate(28.484 92.236)"><tspan x="0" y="0">+</tspan></text><text class="h" transform="translate(33.026 115.198)"><tspan x="0" y="0">+</tspan></text><text class="h" transform="translate(186.419 144.239)"><tspan x="0" y="0">+</tspan></text></g></svg>